<svg width="32" height="32" viewBox="0 0 32 32" fill="none" xmlns="http://www.w3.org/2000/svg">
  <rect width="32" height="32" rx="8" fill="#3F51B5"/>
  <path d="M22 10H10C8.9 10 8 10.9 8 12V20C8 21.1 8.9 22 10 22H22C23.1 22 24 21.1 24 20V12C24 10.9 23.1 10 22 10Z" fill="#0F9D58"/>
  <path d="M16 17.5C17.66 17.5 19 16.16 19 14.5C19 12.84 17.66 11.5 16 11.5C14.34 11.5 13 12.84 13 14.5C13 16.16 14.34 17.5 16 17.5Z" fill="white"/>
  <path d="M22 18.5H10C9.45 18.5 9 18.95 9 19.5C9 20.05 9.45 20.5 10 20.5H22C22.55 20.5 23 20.05 23 19.5C23 18.95 22.55 18.5 22 18.5Z" fill="white"/>
</svg>